<svg version="1.1" id="Layer_1" xmlns="http://www.w3.org/2000/svg" xmlns:xlink="http://www.w3.org/1999/xlink" x="0px" y="0px"
	 width="100%" viewBox="0 0 500 500" enable-background="new 0 0 500 500" xml:space="preserve">
<path fill="#000000" opacity="1.000000" stroke="none" 
	d="
M330.000000,501.000000 
	C220.000031,501.000000 110.500053,501.000000 1.000059,501.000000 
	C1.000039,334.333405 1.000039,167.666794 1.000020,1.000148 
	C167.666565,1.000099 334.333130,1.000099 500.999756,1.000049 
	C500.999847,167.666519 500.999847,334.333038 500.999939,500.999786 
	C444.166656,501.000000 387.333344,501.000000 330.000000,501.000000 
M234.198135,228.987823 
	C232.468689,230.146606 230.071762,230.972794 229.265213,232.591431 
	C228.796753,233.531586 231.030197,235.680481 231.772079,237.404144 
	C232.381668,238.820465 232.584625,240.411804 232.036453,241.988052 
	C224.361938,241.979294 216.687439,241.970535 208.726501,241.350662 
	C206.595032,238.451309 203.941284,235.796036 202.446991,232.598877 
	C199.798141,226.931396 195.682831,225.043274 189.808929,225.989059 
	C188.839890,226.145096 187.837814,226.095871 186.226044,226.360184 
	C185.132446,227.737534 183.968872,229.065475 182.956070,230.499878 
	C173.372147,244.073196 163.975693,257.783844 154.124725,271.159912 
	C151.900726,274.179810 150.937454,276.942383 150.951721,280.535034 
	C151.031738,300.667603 150.968018,320.800720 150.046906,340.986053 
	C147.462753,340.986053 144.878616,340.986053 142.434845,340.986053 
	C142.434845,346.761963 142.434845,351.794006 142.434845,356.871490 
	C174.909805,356.871490 206.951172,356.871490 239.929520,356.997437 
	C279.885223,356.997437 319.840942,356.997437 359.999420,356.997437 
	C359.999420,353.287445 359.701477,350.115906 360.068207,347.023193 
	C360.639160,342.208649 358.757507,340.262939 354.008331,339.943298 
	C354.003998,320.151306 354.109375,300.358002 353.874908,280.568756 
	C353.840454,277.659760 352.823181,274.339020 351.185913,271.943268 
	C342.532501,259.281128 333.174194,247.089294 324.806335,234.248230 
	C320.499268,227.638763 315.604401,224.415955 307.209564,226.399063 
	C303.431488,231.591797 299.653381,236.784531 294.954468,241.981735 
	C288.998352,241.959763 283.042236,241.937790 277.041199,241.096939 
	C277.367645,238.820618 277.643402,236.535675 278.029327,234.269501 
	C279.699890,224.458832 280.544983,215.003189 288.828827,207.027802 
	C298.781494,197.445709 293.263306,179.647278 280.500702,176.581528 
	C280.983215,180.917542 281.499847,185.161575 281.914948,189.415527 
	C282.254120,192.891296 279.192749,196.330688 275.325073,196.954254 
	C269.504456,197.892670 265.760162,196.175934 265.056396,191.966324 
	C264.361725,187.811172 263.995392,183.601135 263.473755,179.322983 
	C255.073395,183.943039 251.961014,195.244553 257.041260,203.393768 
	C259.974884,208.099579 261.678619,212.896835 260.988525,218.412552 
	C260.007141,226.255844 258.946686,234.089249 257.089996,241.987854 
	C255.425156,241.979080 253.760300,241.970306 252.002701,241.221008 
	C251.014130,237.104782 245.608536,233.711685 250.180466,228.958115 
	C246.866913,225.463745 245.716858,225.236160 240.999786,226.177277 
	C237.600113,214.988861 234.134659,203.819717 230.845032,192.599045 
	C229.975372,189.632721 229.592194,186.516647 229.087143,183.452591 
	C228.603500,180.518250 228.666840,177.420837 227.725235,174.655411 
	C226.784470,171.892456 225.056274,169.338943 223.349045,166.922684 
	C222.598892,165.860992 220.542831,164.462814 219.953522,164.790222 
	C218.384216,165.662079 216.247696,167.351822 216.198120,168.780945 
	C216.039154,173.363663 216.674866,177.980255 217.129211,182.571381 
	C217.200378,183.290482 217.928131,183.942276 218.344452,184.629929 
	C220.231735,187.747086 222.733917,190.654053 223.889389,194.022690 
	C227.840012,205.540253 231.317047,217.220261 234.198135,228.987823 
M373.302368,178.302094 
	C373.439636,178.417236 373.576904,178.532379 373.273499,179.154541 
	C368.413177,184.672531 363.552826,190.190506 357.677246,196.861084 
	C360.922211,198.484070 363.306244,200.444519 365.886353,200.750305 
	C368.452484,201.054398 371.189331,199.523544 373.899017,199.109573 
	C377.378693,198.577972 380.905975,198.357925 384.412750,198.003662 
	C384.455048,198.317734 384.497345,198.631805 384.539642,198.945877 
	C378.672974,202.869904 372.806305,206.793915 366.966888,210.699677 
	C368.849579,213.983444 370.602875,217.041489 372.485931,220.325928 
	C374.042358,219.417877 375.334412,218.756378 376.530121,217.951721 
	C385.406952,211.978256 394.227448,205.920288 403.139984,200.000793 
	C410.486816,195.121185 410.644592,195.121124 406.114288,187.625244 
	C405.325653,186.320328 403.106262,185.107361 401.600922,185.168213 
	C398.405396,185.297409 395.267365,186.459885 392.064362,186.891388 
	C388.144409,187.419495 384.182037,187.632904 379.044647,188.088135 
	C384.308075,181.827423 388.863342,176.734985 392.970520,171.303680 
	C394.051941,169.873672 394.458130,167.171555 393.914948,165.451279 
	C393.080566,162.808868 391.156372,160.510574 389.714508,158.099594 
	C375.639282,164.314224 361.952057,170.357529 348.138367,176.456696 
	C349.949005,179.874268 351.610382,183.010132 353.310913,186.219879 
	C360.144745,183.327484 366.535828,180.622467 373.302368,178.302094 
M109.445007,264.013000 
	C123.037758,262.296814 130.333740,247.981644 126.994286,235.378448 
	C123.833084,223.447952 109.523926,215.907059 97.289894,219.906845 
	C82.227852,224.831253 79.224602,234.640579 81.277794,246.775299 
	C83.320419,258.847534 95.354538,266.677338 109.445007,264.013000 
M101.054428,177.695480 
	C98.432625,182.554642 95.810829,187.413803 92.981667,192.657288 
	C106.526573,199.837158 119.939835,206.947250 133.468277,214.118393 
	C136.482986,208.047714 139.574463,202.144440 142.369659,196.104050 
	C145.217941,189.948929 143.732330,184.332550 138.464706,179.992294 
	C134.803619,176.975784 127.867096,177.186752 123.292183,180.453781 
	C117.462151,169.468109 110.127655,168.331741 101.054428,177.695480 
M155.951767,133.620361 
	C149.370590,128.273178 143.997391,127.241211 138.316727,131.434113 
	C133.061859,135.312744 128.479935,140.103058 123.101242,144.942078 
	C133.675934,156.404266 143.767197,167.342438 153.845932,178.267029 
	C156.848297,175.698074 159.435699,173.484177 162.078094,171.223236 
	C160.568192,169.157288 159.327850,167.023697 157.662994,165.300171 
	C155.854462,163.427933 153.651108,161.937073 151.619919,160.279922 
	C151.942001,159.817200 152.264084,159.354492 152.586166,158.891785 
	C155.838013,159.491119 159.122849,159.951813 162.335434,160.716171 
	C171.435501,162.881332 177.743027,160.021332 180.622162,152.309540 
	C173.170822,151.248550 165.712631,150.186569 158.320877,149.134048 
	C159.751862,143.380173 159.938171,138.549789 155.951767,133.620361 
M337.957611,115.925560 
	C335.791656,113.562187 333.938782,110.759384 331.385193,108.940102 
	C327.703735,106.317284 323.416016,104.563866 319.569702,102.148468 
	C316.223053,100.046844 314.683685,101.344788 313.140198,104.418022 
	C308.609253,113.439529 304.239838,122.577415 299.088989,131.242813 
	C293.480225,140.678513 293.194305,140.699219 303.208679,144.945755 
	C303.490356,145.065216 303.866974,144.960861 304.609833,144.960861 
	C306.857849,140.880936 309.184143,136.658951 311.972687,131.598007 
	C313.074921,137.712982 313.943298,143.078690 315.063721,148.391235 
	C315.374817,149.866211 316.077087,151.767914 317.216461,152.462662 
	C320.519958,154.476974 324.136658,155.977692 328.141113,157.928741 
	C326.344391,149.542908 324.727539,141.996490 323.095795,134.380661 
	C333.425476,135.069778 341.214233,125.669098 337.957611,115.925560 
M211.069580,119.334267 
	C204.495804,112.402382 197.922043,105.470497 191.749954,98.962189 
	C189.200256,99.856392 187.527832,100.426834 185.866974,101.029167 
	C183.372940,101.933655 181.872345,103.197273 181.913773,106.380318 
	C182.108887,121.372871 182.000656,136.369385 182.000656,151.391876 
	C191.573898,149.579391 192.075912,149.009995 193.065079,140.306946 
	C193.192749,139.183517 193.918701,137.559067 194.799438,137.185791 
	C199.342377,135.260391 204.026077,133.667160 208.277878,132.099197 
	C210.680252,134.784393 212.716003,137.059814 214.557068,139.117630 
	C218.492218,137.328766 221.797516,135.826218 226.105316,133.867950 
	C220.830811,128.854813 216.141190,124.397575 211.069580,119.334267 
M420.998627,245.207489 
	C420.997467,237.422913 421.019928,237.350510 413.513458,235.022888 
	C404.704742,232.291458 395.876892,229.614639 387.007782,227.087982 
	C382.507080,225.805817 377.897522,224.905563 373.444000,223.857788 
	C373.682281,226.738419 374.105347,228.686539 373.943878,230.584946 
	C373.643005,234.122345 374.490875,236.103119 378.558319,236.423111 
	C380.431244,236.570480 383.446198,238.131454 383.739075,239.517288 
	C384.710327,244.113129 384.679688,248.920685 385.018982,253.455063 
	C382.196625,254.881073 379.730316,256.127167 376.649078,257.683960 
	C377.131989,261.317078 377.644287,265.171234 378.215698,269.470184 
	C392.335297,262.248871 405.535400,255.530090 418.681976,248.708084 
	C419.650726,248.205414 420.233429,246.958755 420.998627,245.207489 
M281.514282,91.899910 
	C274.492157,90.466675 267.470001,89.033440 260.449524,87.600548 
	C258.178009,103.207329 256.051697,117.816475 253.874527,132.775085 
	C257.735352,133.295044 261.185974,133.759781 264.705353,134.233765 
	C265.670807,128.371552 266.511993,123.263885 267.354279,118.149635 
	C278.620117,120.555397 285.749817,118.782509 288.887390,111.520821 
	C293.021515,101.952477 290.790436,96.341270 281.514282,91.899910 
M368.533478,135.023285 
	C366.100861,133.751602 364.933746,128.184875 360.795929,132.686707 
	C353.559082,140.560226 346.417328,148.521927 339.125854,156.344238 
	C331.360443,164.675034 330.302002,161.739761 339.321747,170.744370 
	C339.508881,170.931152 339.928528,170.884964 340.239716,170.947479 
	C339.780396,170.482651 339.321045,170.017822 338.861725,169.552994 
	C349.143616,159.990250 359.418640,150.420090 369.712708,140.870453 
	C372.008148,138.741013 370.901794,137.120056 368.533478,135.023285 
z"/>
<path fill="#2E9587" opacity="1.000000" stroke="none" 
	d="
M238.992554,356.871490 
	C206.951172,356.871490 174.909805,356.871490 142.434845,356.871490 
	C142.434845,351.794006 142.434845,346.761963 142.434845,340.986053 
	C144.878616,340.986053 147.462753,340.986053 150.961639,341.067749 
	C175.218262,341.095703 198.560150,341.041901 222.366180,341.018494 
	C223.660477,341.057281 224.490616,341.071991 225.320801,341.073151 
	C232.041000,341.082611 232.044449,341.081818 232.045197,334.364807 
	C232.047180,316.763733 232.014648,299.162567 232.091141,281.561798 
	C232.099350,279.673492 232.734589,277.787903 233.509460,275.940552 
	C235.961227,275.953186 237.982452,275.926300 240.464630,275.942017 
	C245.189636,275.961792 249.453690,275.938995 254.202759,275.943939 
	C260.478668,275.967926 266.269592,275.964142 272.525085,275.977966 
	C295.983398,275.955200 318.977112,275.914856 342.004517,276.350616 
	C342.047729,296.082458 342.036682,315.338226 342.101562,334.593750 
	C342.107483,336.347107 342.600800,338.098785 342.924988,340.145264 
	C342.988037,340.638855 342.993835,340.838440 342.670319,341.284393 
	C340.517975,341.599609 338.695007,341.726959 336.871887,341.728546 
	C306.279663,341.755432 275.687439,341.766632 245.095200,341.781128 
	C243.176270,341.782043 241.257339,341.781281 238.992554,341.781281 
	C238.992554,347.279266 238.992554,352.075378 238.992554,356.871490 
z"/>
<path fill="#F8F1E8" opacity="1.000000" stroke="none" 
	d="
M221.902039,340.988098 
	C198.560150,341.041901 175.218262,341.095703 151.414871,341.041565 
	C150.968018,320.800720 151.031738,300.667603 150.951721,280.535034 
	C150.937454,276.942383 151.900726,274.179810 154.124725,271.159912 
	C163.975693,257.783844 173.372147,244.073196 182.956070,230.499878 
	C183.968872,229.065475 185.132446,227.737534 186.662491,226.566254 
	C198.026596,242.247223 209.007202,257.685333 219.808563,273.247894 
	C221.030212,275.008026 221.817551,277.465088 221.832504,279.605804 
	C221.975510,300.065735 221.908661,320.527130 221.902039,340.988098 
M187.700684,300.624481 
	C191.249176,300.943939 194.794662,301.389557 198.348755,301.473969 
	C199.039337,301.490356 200.352127,300.119141 200.377350,299.354950 
	C200.555313,293.961395 200.471909,288.559235 200.471909,283.142334 
	C195.744888,283.142334 191.840408,283.142334 187.440338,283.142334 
	C187.440338,288.898438 187.440338,294.344238 187.700684,300.624481 
M200.509796,316.566284 
	C200.509796,313.856079 200.509796,311.145844 200.509796,308.339172 
	C195.746582,308.339172 191.983475,308.339172 187.793991,308.339172 
	C187.793991,314.547638 187.793991,320.553284 187.793991,326.762543 
	C192.012329,326.762543 196.003860,326.762543 200.509094,326.762543 
	C200.509094,323.408112 200.509094,320.458130 200.509796,316.566284 
M183.117859,324.295532 
	C183.117859,319.049561 183.117859,313.803589 183.117859,308.681488 
	C170.147995,306.905121 170.147995,306.905121 170.148132,318.779480 
	C170.148148,319.444489 170.029892,320.135559 170.169785,320.769684 
	C170.632233,322.866058 171.236588,326.752380 171.700012,326.739899 
	C175.501663,326.637543 179.801285,329.127777 183.117859,324.295532 
M178.386826,301.625061 
	C179.833115,301.522430 181.279419,301.419800 182.816895,301.310669 
	C182.816895,295.057922 182.816895,289.188080 182.816895,283.278717 
	C178.500946,283.278717 174.507874,283.278717 170.660736,283.278717 
	C170.419144,284.034760 170.239441,284.341644 170.234802,284.651154 
	C170.187469,287.792938 170.121780,290.935577 170.151154,294.077148 
	C170.226303,302.116150 168.943466,301.592316 178.386826,301.625061 
z"/>
<path fill="#FAF2E9" opacity="1.000000" stroke="none" 
	d="
M239.461029,356.934448 
	C238.992554,352.075378 238.992554,347.279266 238.992554,341.781281 
	C241.257339,341.781281 243.176270,341.782043 245.095200,341.781128 
	C275.687439,341.766632 306.279663,341.755432 336.871887,341.728546 
	C338.695007,341.726959 340.517975,341.599609 343.122498,341.376526 
	C347.281097,341.102386 350.658203,340.982422 354.035309,340.862457 
	C358.757507,340.262939 360.639160,342.208649 360.068207,347.023193 
	C359.701477,350.115906 359.999420,353.287445 359.999420,356.997437 
	C319.840942,356.997437 279.885223,356.997437 239.461029,356.934448 
z"/>
<path fill="#319688" opacity="1.000000" stroke="none" 
	d="
M209.012924,241.961761 
	C216.687439,241.970535 224.361938,241.979294 232.958862,242.087006 
	C239.952652,242.111145 246.024063,242.036346 252.095459,241.961548 
	C253.760300,241.970306 255.425156,241.979080 257.976074,242.021393 
	C264.936829,242.008575 271.011475,241.962204 277.086121,241.915802 
	C283.042236,241.937790 288.998352,241.959763 295.861938,242.142578 
	C297.767944,242.335526 298.766357,242.390579 299.765045,242.396225 
	C311.320068,242.461517 311.974915,243.241333 310.966644,254.807281 
	C310.659424,258.331543 309.548645,260.111816 305.471222,259.957581 
	C297.992493,259.674622 290.490173,260.014465 282.551941,260.053894 
	C279.433533,260.037720 276.760895,260.062286 273.616913,260.035919 
	C267.380432,260.001556 261.615326,260.018158 255.393188,259.989349 
	C248.615875,259.989105 242.295593,260.034241 235.513672,260.044861 
	C230.739044,260.040588 226.426071,260.070831 221.798492,259.953308 
	C217.326904,253.857605 213.169922,247.909683 209.012924,241.961761 
z"/>
<path fill="#DDA848" opacity="1.000000" stroke="none" 
	d="
M372.926941,177.917480 
	C366.535828,180.622467 360.144745,183.327484 353.310913,186.219879 
	C351.610382,183.010132 349.949005,179.874268 348.138367,176.456696 
	C361.952057,170.357529 375.639282,164.314224 389.714508,158.099594 
	C391.156372,160.510574 393.080566,162.808868 393.914948,165.451279 
	C394.458130,167.171555 394.051941,169.873672 392.970520,171.303680 
	C388.863342,176.734985 384.308075,181.827423 379.044647,188.088135 
	C384.182037,187.632904 388.144409,187.419495 392.064362,186.891388 
	C395.267365,186.459885 398.405396,185.297409 401.600922,185.168213 
	C403.106262,185.107361 405.325653,186.320328 406.114288,187.625244 
	C410.644592,195.121124 410.486816,195.121185 403.139984,200.000793 
	C394.227448,205.920288 385.406952,211.978256 376.530121,217.951721 
	C375.334412,218.756378 374.042358,219.417877 372.485931,220.325928 
	C370.602875,217.041489 368.849579,213.983444 366.966888,210.699677 
	C372.806305,206.793915 378.672974,202.869904 384.539642,198.945877 
	C384.497345,198.631805 384.455048,198.317734 384.412750,198.003662 
	C380.905975,198.357925 377.378693,198.577972 373.899017,199.109573 
	C371.189331,199.523544 368.452484,201.054398 365.886353,200.750305 
	C363.306244,200.444519 360.922211,198.484070 357.677246,196.861084 
	C363.552826,190.190506 368.413177,184.672531 373.709656,178.713257 
	C374.246368,177.904587 374.346924,177.537170 374.447479,177.169769 
	C373.940643,177.419006 373.433777,177.668243 372.926941,177.917480 
z"/>
<path fill="#0A4B5E" opacity="1.000000" stroke="none" 
	d="
M277.063660,241.506378 
	C271.011475,241.962204 264.936829,242.008575 258.391113,241.990906 
	C258.946686,234.089249 260.007141,226.255844 260.988525,218.412552 
	C261.678619,212.896835 259.974884,208.099579 257.041260,203.393768 
	C251.961014,195.244553 255.073395,183.943039 263.473755,179.322983 
	C263.995392,183.601135 264.361725,187.811172 265.056396,191.966324 
	C265.760162,196.175934 269.504456,197.892670 275.325073,196.954254 
	C279.192749,196.330688 282.254120,192.891296 281.914948,189.415527 
	C281.499847,185.161575 280.983215,180.917542 280.500702,176.581528 
	C293.263306,179.647278 298.781494,197.445709 288.828827,207.027802 
	C280.544983,215.003189 279.699890,224.458832 278.029327,234.269501 
	C277.643402,236.535675 277.367645,238.820618 277.063660,241.506378 
z"/>
<path fill="#F9F1E8" opacity="1.000000" stroke="none" 
	d="
M282.997711,260.094635 
	C290.490173,260.014465 297.992493,259.674622 305.471222,259.957581 
	C309.548645,260.111816 310.659424,258.331543 310.966644,254.807281 
	C311.974915,243.241333 311.320068,242.461517 299.765045,242.396225 
	C298.766357,242.390579 297.767944,242.335526 296.322327,242.140350 
	C299.653381,236.784531 303.431488,231.591797 307.625000,226.598236 
	C319.383606,242.867294 330.726776,258.937164 342.021729,275.221191 
	C341.973511,275.435364 341.970856,275.874481 341.970856,275.874481 
	C318.977112,275.914856 295.983398,275.955200 272.583435,275.662537 
	C272.476440,274.567017 272.775635,273.804565 273.400055,272.925232 
	C276.816101,268.570465 279.906921,264.332550 282.997711,260.094635 
z"/>
<path fill="#0B4C5F" opacity="1.000000" stroke="none" 
	d="
M342.069946,275.007019 
	C330.726776,258.937164 319.383606,242.867294 307.928986,226.475403 
	C315.604401,224.415955 320.499268,227.638763 324.806335,234.248230 
	C333.174194,247.089294 342.532501,259.281128 351.185913,271.943268 
	C352.823181,274.339020 353.840454,277.659760 353.874908,280.568756 
	C354.109375,300.358002 354.003998,320.151306 354.021820,340.402893 
	C350.658203,340.982422 347.281097,341.102386 343.451782,341.130188 
	C342.993835,340.838440 342.988037,340.638855 342.940125,339.690979 
	C342.902008,319.196869 342.925018,299.450958 342.873657,279.705261 
	C342.869568,278.138519 342.349976,276.573059 342.069946,275.007019 
z"/>
<path fill="#DCA848" opacity="1.000000" stroke="none" 
	d="
M109.023575,264.053467 
	C95.354538,266.677338 83.320419,258.847534 81.277794,246.775299 
	C79.224602,234.640579 82.227852,224.831253 97.289894,219.906845 
	C109.523926,215.907059 123.833084,223.447952 126.994286,235.378448 
	C130.333740,247.981644 123.037758,262.296814 109.023575,264.053467 
M103.755424,252.993484 
	C114.910904,252.632751 120.099045,244.988663 115.061218,236.335800 
	C112.835823,232.513504 105.792229,229.978455 100.309715,231.026627 
	C95.327271,231.979187 91.709923,235.624756 91.446091,241.272873 
	C91.250595,245.457916 93.120178,249.138153 97.511421,250.818848 
	C99.322731,251.512131 101.121429,252.238342 103.755424,252.993484 
z"/>
<path fill="#0B4C5F" opacity="1.000000" stroke="none" 
	d="
M208.869720,241.656219 
	C213.169922,247.909683 217.326904,253.857605 221.913574,260.262146 
	C225.921814,265.779541 229.500381,270.840271 233.078934,275.901031 
	C232.734589,277.787903 232.099350,279.673492 232.091141,281.561798 
	C232.014648,299.162567 232.047180,316.763733 232.045197,334.364807 
	C232.044449,341.081818 232.041000,341.082611 225.320801,341.073151 
	C224.490616,341.071991 223.660477,341.057281 222.366180,341.018494 
	C221.908661,320.527130 221.975510,300.065735 221.832504,279.605804 
	C221.817551,277.465088 221.030212,275.008026 219.808563,273.247894 
	C209.007202,257.685333 198.026596,242.247223 186.974976,226.456909 
	C187.837814,226.095871 188.839890,226.145096 189.808929,225.989059 
	C195.682831,225.043274 199.798141,226.931396 202.446991,232.598877 
	C203.941284,235.796036 206.595032,238.451309 208.869720,241.656219 
z"/>
<path fill="#DCA848" opacity="1.000000" stroke="none" 
	d="
M101.248337,177.381989 
	C110.127655,168.331741 117.462151,169.468109 123.292183,180.453781 
	C127.867096,177.186752 134.803619,176.975784 138.464706,179.992294 
	C143.732330,184.332550 145.217941,189.948929 142.369659,196.104050 
	C139.574463,202.144440 136.482986,208.047714 133.468277,214.118393 
	C119.939835,206.947250 106.526573,199.837158 92.981667,192.657288 
	C95.810829,187.413803 98.432625,182.554642 101.248337,177.381989 
M123.442657,195.913162 
	C125.802856,197.230804 128.163055,198.548447 130.928314,200.092224 
	C131.697571,197.544052 132.767944,195.406631 132.838455,193.236740 
	C132.880707,191.935516 131.647247,189.988861 130.463943,189.419296 
	C129.246918,188.833481 126.844429,188.996582 125.946304,189.858719 
	C124.554977,191.194321 124.000153,193.401337 123.442657,195.913162 
M111.565140,189.930267 
	C112.663147,189.404022 114.758324,188.642563 114.698601,188.389389 
	C114.286995,186.644440 113.388779,183.576035 112.715279,183.593307 
	C110.443169,183.651596 108.199493,184.818024 105.944946,185.560715 
	C106.067436,186.051483 106.189919,186.542236 106.312408,187.033005 
	C107.870232,187.849915 109.428047,188.666840 111.565140,189.930267 
z"/>
<path fill="#DCA848" opacity="1.000000" stroke="none" 
	d="
M156.013504,134.001556 
	C159.938171,138.549789 159.751862,143.380173 158.320877,149.134048 
	C165.712631,150.186569 173.170822,151.248550 180.622162,152.309540 
	C177.743027,160.021332 171.435501,162.881332 162.335434,160.716171 
	C159.122849,159.951813 155.838013,159.491119 152.586166,158.891785 
	C152.264084,159.354492 151.942001,159.817200 151.619919,160.279922 
	C153.651108,161.937073 155.854462,163.427933 157.662994,165.300171 
	C159.327850,167.023697 160.568192,169.157288 162.078094,171.223236 
	C159.435699,173.484177 156.848297,175.698074 153.845932,178.267029 
	C143.767197,167.342438 133.675934,156.404266 123.101242,144.942078 
	C128.479935,140.103058 133.061859,135.312744 138.316727,131.434113 
	C143.997391,127.241211 149.370590,128.273178 156.013504,134.001556 
M138.425186,144.912292 
	C140.323074,147.203308 142.220963,149.494339 144.118835,151.785370 
	C144.861298,151.632568 145.603745,151.479782 146.346207,151.326981 
	C147.016327,148.832397 148.735672,146.049667 148.145676,143.901123 
	C146.771255,138.896103 142.180969,139.192810 138.425186,144.912292 
z"/>
<path fill="#DDA848" opacity="1.000000" stroke="none" 
	d="
M337.983948,116.322716 
	C341.214233,125.669098 333.425476,135.069778 323.095795,134.380661 
	C324.727539,141.996490 326.344391,149.542908 328.141113,157.928741 
	C324.136658,155.977692 320.519958,154.476974 317.216461,152.462662 
	C316.077087,151.767914 315.374817,149.866211 315.063721,148.391235 
	C313.943298,143.078690 313.074921,137.712982 311.972687,131.598007 
	C309.184143,136.658951 306.857849,140.880936 304.609833,144.960861 
	C303.866974,144.960861 303.490356,145.065216 303.208679,144.945755 
	C293.194305,140.699219 293.480225,140.678513 299.088989,131.242813 
	C304.239838,122.577415 308.609253,113.439529 313.140198,104.418022 
	C314.683685,101.344788 316.223053,100.046844 319.569702,102.148468 
	C323.416016,104.563866 327.703735,106.317284 331.385193,108.940102 
	C333.938782,110.759384 335.791656,113.562187 337.983948,116.322716 
M318.075928,119.645195 
	C316.126434,122.420120 317.744263,123.722328 320.173523,124.627983 
	C323.415222,125.836525 325.013245,124.104309 326.239899,121.358223 
	C328.429688,116.456085 324.036743,115.943207 321.495148,113.551949 
	C320.352692,115.637375 319.427216,117.326729 318.075928,119.645195 
z"/>
<path fill="#DCA848" opacity="1.000000" stroke="none" 
	d="
M211.260574,119.637299 
	C216.141190,124.397575 220.830811,128.854813 226.105316,133.867950 
	C221.797516,135.826218 218.492218,137.328766 214.557068,139.117630 
	C212.716003,137.059814 210.680252,134.784393 208.277878,132.099197 
	C204.026077,133.667160 199.342377,135.260391 194.799438,137.185791 
	C193.918701,137.559067 193.192749,139.183517 193.065079,140.306946 
	C192.075912,149.009995 191.573898,149.579391 182.000656,151.391876 
	C182.000656,136.369385 182.108887,121.372871 181.913773,106.380318 
	C181.872345,103.197273 183.372940,101.933655 185.866974,101.029167 
	C187.527832,100.426834 189.200256,99.856392 191.749954,98.962189 
	C197.922043,105.470497 204.495804,112.402382 211.260574,119.637299 
M192.999390,119.927109 
	C192.999390,122.187347 192.999390,124.447586 192.999390,127.192078 
	C195.642029,126.123436 197.776901,125.260132 200.296326,124.241318 
	C197.958969,121.447701 195.804779,118.873039 192.999466,115.520134 
	C192.999466,117.505096 192.999466,118.306526 192.999390,119.927109 
z"/>
<path fill="#DDA848" opacity="1.000000" stroke="none" 
	d="
M420.997131,245.632736 
	C420.233429,246.958755 419.650726,248.205414 418.681976,248.708084 
	C405.535400,255.530090 392.335297,262.248871 378.215698,269.470184 
	C377.644287,265.171234 377.131989,261.317078 376.649078,257.683960 
	C379.730316,256.127167 382.196625,254.881073 385.018982,253.455063 
	C384.679688,248.920685 384.710327,244.113129 383.739075,239.517288 
	C383.446198,238.131454 380.431244,236.570480 378.558319,236.423111 
	C374.490875,236.103119 373.643005,234.122345 373.943878,230.584946 
	C374.105347,228.686539 373.682281,226.738419 373.444000,223.857788 
	C377.897522,224.905563 382.507080,225.805817 387.007782,227.087982 
	C395.876892,229.614639 404.704742,232.291458 413.513458,235.022888 
	C421.019928,237.350510 420.997467,237.422913 420.997131,245.632736 
M403.479584,244.048477 
	C403.823517,243.772751 404.167419,243.497040 404.511322,243.221283 
	C404.351715,243.177185 404.193634,243.126297 404.032288,243.089996 
	C400.905090,242.386230 397.777527,241.684174 393.921295,240.818100 
	C394.149353,243.444916 394.343872,245.685104 394.594604,248.572968 
	C398.022491,246.912460 400.472504,245.725647 403.479584,244.048477 
z"/>
<path fill="#DCA848" opacity="1.000000" stroke="none" 
	d="
M281.915283,91.945877 
	C290.790436,96.341270 293.021515,101.952477 288.887390,111.520821 
	C285.749817,118.782509 278.620117,120.555397 267.354279,118.149635 
	C266.511993,123.263885 265.670807,128.371552 264.705353,134.233765 
	C261.185974,133.759781 257.735352,133.295044 253.874527,132.775085 
	C256.051697,117.816475 258.178009,103.207329 260.449524,87.600548 
	C267.470001,89.033440 274.492157,90.466675 281.915283,91.945877 
M276.190521,100.037834 
	C274.363098,99.592880 272.535645,99.147926 270.744995,98.711929 
	C270.083984,100.731255 269.162201,102.251686 269.205933,103.743813 
	C269.259705,105.578979 269.950714,108.859085 270.661194,108.940475 
	C272.907684,109.197853 275.860321,108.949287 277.490997,107.614799 
	C280.018341,105.546577 278.955292,102.689896 276.190521,100.037834 
z"/>
<path fill="#0A4B5E" opacity="1.000000" stroke="none" 
	d="
M234.974731,228.838303 
	C231.317047,217.220261 227.840012,205.540253 223.889389,194.022690 
	C222.733917,190.654053 220.231735,187.747086 218.344452,184.629929 
	C217.928131,183.942276 217.200378,183.290482 217.129211,182.571381 
	C216.674866,177.980255 216.039154,173.363663 216.198120,168.780945 
	C216.247696,167.351822 218.384216,165.662079 219.953522,164.790222 
	C220.542831,164.462814 222.598892,165.860992 223.349045,166.922684 
	C225.056274,169.338943 226.784470,171.892456 227.725235,174.655411 
	C228.666840,177.420837 228.603500,180.518250 229.087143,183.452591 
	C229.592194,186.516647 229.975372,189.632721 230.845032,192.599045 
	C234.134659,203.819717 237.600113,214.988861 240.800171,226.859772 
	C238.725266,227.974274 236.850006,228.406296 234.974731,228.838303 
z"/>
<path fill="#DDA848" opacity="1.000000" stroke="none" 
	d="
M368.786713,135.290100 
	C370.901794,137.120056 372.008148,138.741013 369.712708,140.870453 
	C359.418640,150.420090 349.143616,159.990250 338.861725,169.552994 
	C339.321045,170.017822 339.780396,170.482651 340.239716,170.947479 
	C339.928528,170.884964 339.508881,170.931152 339.321747,170.744370 
	C330.302002,161.739761 331.360443,164.675034 339.125854,156.344238 
	C346.417328,148.521927 353.559082,140.560226 360.795929,132.686707 
	C364.933746,128.184875 366.100861,133.751602 368.786713,135.290100 
z"/>
<path fill="#FAF2E9" opacity="1.000000" stroke="none" 
	d="
M234.586426,228.913055 
	C236.850006,228.406296 238.725266,227.974274 240.818909,227.249557 
	C245.716858,225.236160 246.866913,225.463745 250.180466,228.958115 
	C245.608536,233.711685 251.014130,237.104782 252.049072,241.591278 
	C246.024063,242.036346 239.952652,242.111145 233.424530,242.055756 
	C232.584625,240.411804 232.381668,238.820465 231.772079,237.404144 
	C231.030197,235.680481 228.796753,233.531586 229.265213,232.591431 
	C230.071762,230.972794 232.468689,230.146606 234.586426,228.913055 
z"/>
<path fill="#0B4C5F" opacity="1.000000" stroke="none" 
	d="
M273.074829,273.042114 
	C272.775635,273.804565 272.476440,274.567017 272.118896,275.644928 
	C266.269592,275.964142 260.478668,275.967926 254.245422,275.512207 
	C254.485458,270.046753 255.167831,265.040771 255.850204,260.034729 
	C261.615326,260.018158 267.380432,260.001556 273.584534,260.470215 
	C273.707306,264.984344 273.391052,269.013245 273.074829,273.042114 
z"/>
<path fill="#F9F1E8" opacity="1.000000" stroke="none" 
	d="
M255.393188,259.989380 
	C255.167831,265.040771 254.485458,270.046753 253.760422,275.484497 
	C249.453690,275.938995 245.189636,275.961792 240.456543,275.555573 
	C238.650131,270.110840 237.312714,265.095123 235.975311,260.079376 
	C242.295593,260.034241 248.615875,259.989105 255.393188,259.989380 
z"/>
<path fill="#000000" opacity="1.000000" stroke="none" 
	d="
M235.513672,260.044861 
	C237.312714,265.095123 238.650131,270.110840 239.995605,275.513000 
	C237.982452,275.926300 235.961227,275.953186 233.509460,275.940552 
	C229.500381,270.840271 225.921814,265.779541 222.228180,260.409912 
	C226.426071,260.070831 230.739044,260.040588 235.513672,260.044861 
z"/>
<path fill="#6EAEA4" opacity="1.000000" stroke="none" 
	d="
M342.021729,275.221191 
	C342.349976,276.573059 342.869568,278.138519 342.873657,279.705261 
	C342.925018,299.450958 342.902008,319.196869 342.882874,339.396973 
	C342.600800,338.098785 342.107483,336.347107 342.101562,334.593750 
	C342.036682,315.338226 342.047729,296.082458 342.004517,276.350616 
	C341.970856,275.874481 341.973511,275.435364 342.021729,275.221191 
z"/>
<path fill="#3A9A8D" opacity="1.000000" stroke="none" 
	d="
M187.570511,300.207275 
	C187.440338,294.344238 187.440338,288.898438 187.440338,283.142334 
	C191.840408,283.142334 195.744888,283.142334 200.471909,283.142334 
	C200.471909,288.559235 200.555313,293.961395 200.377350,299.354950 
	C200.352127,300.119141 199.039337,301.490356 198.348755,301.473969 
	C194.794662,301.389557 191.249176,300.943939 187.570511,300.207275 
z"/>
<path fill="#37998B" opacity="1.000000" stroke="none" 
	d="
M200.509445,317.037201 
	C200.509094,320.458130 200.509094,323.408112 200.509094,326.762543 
	C196.003860,326.762543 192.012329,326.762543 187.793991,326.762543 
	C187.793991,320.553284 187.793991,314.547638 187.793991,308.339172 
	C191.983475,308.339172 195.746582,308.339172 200.509796,308.339172 
	C200.509796,311.145844 200.509796,313.856079 200.509445,317.037201 
z"/>
<path fill="#35988A" opacity="1.000000" stroke="none" 
	d="
M183.098969,324.774048 
	C179.801285,329.127777 175.501663,326.637543 171.700012,326.739899 
	C171.236588,326.752380 170.632233,322.866058 170.169785,320.769684 
	C170.029892,320.135559 170.148148,319.444489 170.148132,318.779480 
	C170.147995,306.905121 170.147995,306.905121 183.117859,308.681488 
	C183.117859,313.803589 183.117859,319.049561 183.098969,324.774048 
z"/>
<path fill="#37998B" opacity="1.000000" stroke="none" 
	d="
M177.931030,301.624878 
	C168.943466,301.592316 170.226303,302.116150 170.151154,294.077148 
	C170.121780,290.935577 170.187469,287.792938 170.234802,284.651154 
	C170.239441,284.341644 170.419144,284.034760 170.660736,283.278717 
	C174.507874,283.278717 178.500946,283.278717 182.816895,283.278717 
	C182.816895,289.188080 182.816895,295.057922 182.816895,301.310669 
	C181.279419,301.419800 179.833115,301.522430 177.931030,301.624878 
z"/>
<path fill="#000000" opacity="1.000000" stroke="none" 
	d="
M273.400024,272.925232 
	C273.391052,269.013245 273.707306,264.984344 274.055908,260.521179 
	C276.760895,260.062286 279.433533,260.037720 282.551941,260.053894 
	C279.906921,264.332550 276.816101,268.570465 273.400024,272.925232 
z"/>
<path fill="#000000" opacity="1.000000" stroke="none" 
	d="
M373.114655,178.109787 
	C373.433777,177.668243 373.940643,177.419006 374.447479,177.169769 
	C374.346924,177.537170 374.246368,177.904587 373.929993,178.459747 
	C373.576904,178.532379 373.439636,178.417236 373.114655,178.109787 
z"/>
<path fill="#000000" opacity="1.000000" stroke="none" 
	d="
M103.340652,252.971527 
	C101.121429,252.238342 99.322731,251.512131 97.511421,250.818848 
	C93.120178,249.138153 91.250595,245.457916 91.446091,241.272873 
	C91.709923,235.624756 95.327271,231.979187 100.309715,231.026627 
	C105.792229,229.978455 112.835823,232.513504 115.061218,236.335800 
	C120.099045,244.988663 114.910904,252.632751 103.340652,252.971527 
z"/>
<path fill="#000000" opacity="1.000000" stroke="none" 
	d="
M123.266655,195.576019 
	C124.000153,193.401337 124.554977,191.194321 125.946304,189.858719 
	C126.844429,188.996582 129.246918,188.833481 130.463943,189.419296 
	C131.647247,189.988861 132.880707,191.935516 132.838455,193.236740 
	C132.767944,195.406631 131.697571,197.544052 130.928314,200.092224 
	C128.163055,198.548447 125.802856,197.230804 123.266655,195.576019 
z"/>
<path fill="#000000" opacity="1.000000" stroke="none" 
	d="
M111.275505,189.707001 
	C109.428047,188.666840 107.870232,187.849915 106.312408,187.033005 
	C106.189919,186.542236 106.067436,186.051483 105.944946,185.560715 
	C108.199493,184.818024 110.443169,183.651596 112.715279,183.593307 
	C113.388779,183.576035 114.286995,186.644440 114.698601,188.389389 
	C114.758324,188.642563 112.663147,189.404022 111.275505,189.707001 
z"/>
<path fill="#000000" opacity="1.000000" stroke="none" 
	d="
M138.249512,144.592621 
	C142.180969,139.192810 146.771255,138.896103 148.145676,143.901123 
	C148.735672,146.049667 147.016327,148.832397 146.346207,151.326981 
	C145.603745,151.479782 144.861298,151.632568 144.118835,151.785370 
	C142.220963,149.494339 140.323074,147.203308 138.249512,144.592621 
z"/>
<path fill="#000000" opacity="1.000000" stroke="none" 
	d="
M318.288818,119.330635 
	C319.427216,117.326729 320.352692,115.637375 321.495148,113.551949 
	C324.036743,115.943207 328.429688,116.456085 326.239899,121.358223 
	C325.013245,124.104309 323.415222,125.836525 320.173523,124.627983 
	C317.744263,123.722328 316.126434,122.420120 318.288818,119.330635 
z"/>
<path fill="#000000" opacity="1.000000" stroke="none" 
	d="
M192.999420,119.517532 
	C192.999466,118.306526 192.999466,117.505096 192.999466,115.520134 
	C195.804779,118.873039 197.958969,121.447701 200.296326,124.241318 
	C197.776901,125.260132 195.642029,126.123436 192.999390,127.192078 
	C192.999390,124.447586 192.999390,122.187347 192.999420,119.517532 
z"/>
<path fill="#000000" opacity="1.000000" stroke="none" 
	d="
M403.201050,244.293655 
	C400.472504,245.725647 398.022491,246.912460 394.594604,248.572968 
	C394.343872,245.685104 394.149353,243.444916 393.921295,240.818100 
	C397.777527,241.684174 400.905090,242.386230 404.032288,243.089996 
	C404.193634,243.126297 404.351715,243.177185 404.511322,243.221298 
	C404.167419,243.497040 403.823517,243.772751 403.201050,244.293655 
z"/>
<path fill="#000000" opacity="1.000000" stroke="none" 
	d="
M276.543396,100.226929 
	C278.955292,102.689896 280.018341,105.546577 277.490997,107.614799 
	C275.860321,108.949287 272.907684,109.197853 270.661194,108.940475 
	C269.950714,108.859085 269.259705,105.578979 269.205933,103.743813 
	C269.162201,102.251686 270.083984,100.731255 270.744995,98.711929 
	C272.535645,99.147926 274.363098,99.592880 276.543396,100.226929 
z"/>
</svg>